HIERARCHY
ROOT Hips
{
	OFFSET 0.000000 100.481300 0.000000
	CHANNELS 6 Xposition Yposition Zposition Xrotation Yrotation Zrotation
	JOINT Spine
	{
		OFFSET -0.279200 12.230698 -2.892100
		CHANNELS 3 Xrotation Yrotation Zrotation
		JOINT Spine1
		{
			OFFSET -0.325700 14.269203 -3.374200
			CHANNELS 3 Xrotation Yrotation Zrotation
			JOINT Spine2
			{
				OFFSET -0.372300 16.307602 -0.352600
				CHANNELS 3 Xrotation Yrotation Zrotation
				JOINT Neck
				{
					OFFSET -0.418800 17.814194 8.416900
					CHANNELS 3 Xrotation Yrotation Zrotation
					JOINT Head
					{
						OFFSET 0.000000 7.031097 3.806800
						CHANNELS 3 Xrotation Yrotation Zrotation
						JOINT HeadTop_End
						{
							OFFSET 0.000000 24.646606 12.978600
							CHANNELS 3 Xrotation Yrotation Zrotation
							End Site
							{
								OFFSET 0.000000 27.854965 0.000000
							}
						}
					}
				}
				JOINT LeftShoulder
				{
					OFFSET 16.952999 14.495407 -7.737500
					CHANNELS 3 Xrotation Yrotation Zrotation
					JOINT LeftArm
					{
						OFFSET 9.308998 -2.777710 0.208600
						CHANNELS 3 Xrotation Yrotation Zrotation
						JOINT LeftForeArm
						{
							OFFSET 29.972298 0.000000 0.000000
							CHANNELS 3 Xrotation Yrotation Zrotation
							JOINT LeftHand
							{
								OFFSET 26.026505 0.000000 0.000000
								CHANNELS 3 Xrotation Yrotation Zrotation
								JOINT LeftHandThumb1
								{
									OFFSET 12.240501 -7.147949 9.207150
									CHANNELS 3 Xrotation Yrotation Zrotation
									JOINT LeftHandThumb2
									{
										OFFSET 4.138618 -2.389435 2.389433
										CHANNELS 3 Xrotation Yrotation Zrotation
										JOINT LeftHandThumb3
										{
											OFFSET 2.726913 -1.574387 1.574386
											CHANNELS 3 Xrotation Yrotation Zrotation
											JOINT LeftHandThumb4
											{
												OFFSET 3.941010 -2.275345 2.275342
												CHANNELS 3 Xrotation Yrotation Zrotation
												End Site
												{
													OFFSET -0.005798 5.087799 0.009903
												}
											}
										}
									}
								}
								JOINT LeftHandIndex1
								{
									OFFSET 24.424698 -1.985611 5.953459
									CHANNELS 3 Xrotation Yrotation Zrotation
									JOINT LeftHandIndex2
									{
										OFFSET 6.426697 0.000000 0.000000
										CHANNELS 3 Xrotation Yrotation Zrotation
										JOINT LeftHandIndex3
										{
											OFFSET 5.337898 0.000000 0.000000
											CHANNELS 3 Xrotation Yrotation Zrotation
											JOINT LeftHandIndex4
											{
												OFFSET 4.409401 0.000000 0.000000
												CHANNELS 3 Xrotation Yrotation Zrotation
												End Site
												{
													OFFSET 0.000000 4.409363 0.014373
												}
											}
										}
									}
								}
								JOINT LeftHandMiddle1
								{
									OFFSET 23.810104 0.000000 0.000000
									CHANNELS 3 Xrotation Yrotation Zrotation
									JOINT LeftHandMiddle2
									{
										OFFSET 7.176498 0.000000 0.000000
										CHANNELS 3 Xrotation Yrotation Zrotation
										JOINT LeftHandMiddle3
										{
											OFFSET 6.774902 0.000000 0.000000
											CHANNELS 3 Xrotation Yrotation Zrotation
											JOINT LeftHandMiddle4
											{
												OFFSET 5.403328 0.000000 0.000000
												CHANNELS 3 Xrotation Yrotation Zrotation
												End Site
												{
													OFFSET -0.027702 5.403244 0.017414
												}
											}
										}
									}
								}
								JOINT LeftHandRing1
								{
									OFFSET 22.908401 -0.839279 -6.020567
									CHANNELS 3 Xrotation Yrotation Zrotation
									JOINT LeftHandRing2
									{
										OFFSET 6.337502 0.000000 0.000000
										CHANNELS 3 Xrotation Yrotation Zrotation
										JOINT LeftHandRing3
										{
											OFFSET 5.779297 0.000000 0.000000
											CHANNELS 3 Xrotation Yrotation Zrotation
											JOINT LeftHandRing4
											{
												OFFSET 4.965698 0.000000 0.000000
												CHANNELS 3 Xrotation Yrotation Zrotation
												End Site
												{
													OFFSET 0.000000 4.965668 0.016186
												}
											}
										}
									}
								}
								JOINT LeftHandPinky1
								{
									OFFSET 20.037003 -1.530319 -10.950146
									CHANNELS 3 Xrotation Yrotation Zrotation
									JOINT LeftHandPinky2
									{
										OFFSET 5.254700 0.000000 0.000000
										CHANNELS 3 Xrotation Yrotation Zrotation
										JOINT LeftHandPinky3
										{
											OFFSET 4.810204 0.000000 0.000000
											CHANNELS 3 Xrotation Yrotation Zrotation
											JOINT LeftHandPinky4
											{
												OFFSET 3.647202 0.000000 0.000000
												CHANNELS 3 Xrotation Yrotation Zrotation
												End Site
												{
													OFFSET 0.000000 3.647186 0.011889
												}
											}
										}
									}
								}
							}
						}
					}
				}
				JOINT RightShoulder
				{
					OFFSET -15.141001 14.495407 -7.737500
					CHANNELS 3 Xrotation Yrotation Zrotation
					JOINT RightArm
					{
						OFFSET -9.308998 -2.777710 0.208500
						CHANNELS 3 Xrotation Yrotation Zrotation
						JOINT RightForeArm
						{
							OFFSET -29.972300 0.000000 0.000000
							CHANNELS 3 Xrotation Yrotation Zrotation
							JOINT RightHand
							{
								OFFSET -26.026505 0.000000 0.000000
								CHANNELS 3 Xrotation Yrotation Zrotation
								JOINT RightHandThumb1
								{
									OFFSET -12.240601 -7.148026 9.207092
									CHANNELS 3 Xrotation Yrotation Zrotation
									JOINT RightHandThumb2
									{
										OFFSET -4.138618 -2.389435 2.389433
										CHANNELS 3 Xrotation Yrotation Zrotation
										JOINT RightHandThumb3
										{
											OFFSET -2.726974 -1.574417 1.574421
											CHANNELS 3 Xrotation Yrotation Zrotation
											JOINT RightHandThumb4
											{
												OFFSET -3.941010 -2.275345 2.275343
												CHANNELS 3 Xrotation Yrotation Zrotation
												End Site
												{
													OFFSET 0.005814 5.087799 0.009927
												}
											}
										}
									}
								}
								JOINT RightHandIndex1
								{
									OFFSET -24.424698 -1.985657 5.953444
									CHANNELS 3 Xrotation Yrotation Zrotation
									JOINT RightHandIndex2
									{
										OFFSET -6.426697 0.000000 0.000000
										CHANNELS 3 Xrotation Yrotation Zrotation
										JOINT RightHandIndex3
										{
											OFFSET -5.337898 0.000000 0.000000
											CHANNELS 3 Xrotation Yrotation Zrotation
											JOINT RightHandIndex4
											{
												OFFSET -4.409401 0.000000 0.000000
												CHANNELS 3 Xrotation Yrotation Zrotation
												End Site
												{
													OFFSET 0.000000 4.409363 0.014408
												}
											}
										}
									}
								}
								JOINT RightHandMiddle1
								{
									OFFSET -23.810097 0.000000 0.000000
									CHANNELS 3 Xrotation Yrotation Zrotation
									JOINT RightHandMiddle2
									{
										OFFSET -7.176498 0.000000 0.000000
										CHANNELS 3 Xrotation Yrotation Zrotation
										JOINT RightHandMiddle3
										{
											OFFSET -6.774902 0.000000 0.000000
											CHANNELS 3 Xrotation Yrotation Zrotation
											JOINT RightHandMiddle4
											{
												OFFSET -5.403328 0.000000 0.000000
												CHANNELS 3 Xrotation Yrotation Zrotation
												End Site
												{
													OFFSET 0.027702 5.403244 0.017457
												}
											}
										}
									}
								}
								JOINT RightHandRing1
								{
									OFFSET -22.908302 -0.839325 -6.020576
									CHANNELS 3 Xrotation Yrotation Zrotation
									JOINT RightHandRing2
									{
										OFFSET -6.337502 0.000000 0.000000
										CHANNELS 3 Xrotation Yrotation Zrotation
										JOINT RightHandRing3
										{
											OFFSET -5.779297 0.000000 0.000000
											CHANNELS 3 Xrotation Yrotation Zrotation
											JOINT RightHandRing4
											{
												OFFSET -4.965698 0.000000 0.000000
												CHANNELS 3 Xrotation Yrotation Zrotation
												End Site
												{
													OFFSET 0.000000 4.965668 0.016226
												}
											}
										}
									}
								}
								JOINT RightHandPinky1
								{
									OFFSET -20.037003 -1.530334 -10.950259
									CHANNELS 3 Xrotation Yrotation Zrotation
									JOINT RightHandPinky2
									{
										OFFSET -5.254700 0.000000 0.000000
										CHANNELS 3 Xrotation Yrotation Zrotation
										JOINT RightHandPinky3
										{
											OFFSET -4.810204 0.000000 0.000000
											CHANNELS 3 Xrotation Yrotation Zrotation
											JOINT RightHandPinky4
											{
												OFFSET -3.647202 0.000000 0.000000
												CHANNELS 3 Xrotation Yrotation Zrotation
												End Site
												{
													OFFSET 0.000000 3.647186 0.011917
												}
											}
										}
									}
								}
							}
						}
					}
				}
			}
		}
	}
	JOINT LeftUpLeg
	{
		OFFSET 15.427100 -6.655098 0.678600
		CHANNELS 3 Xrotation Yrotation Zrotation
		JOINT LeftLeg
		{
			OFFSET 4.081073 -39.591068 13.024000
			CHANNELS 3 Xrotation Yrotation Zrotation
			JOINT LeftFoot
			{
				OFFSET -4.081074 -37.707932 -15.979700
				CHANNELS 3 Xrotation Yrotation Zrotation
				JOINT LeftToeBase
				{
					OFFSET 5.346399 -15.068900 20.645000
					CHANNELS 3 Xrotation Yrotation Zrotation
					JOINT LeftToe_End
					{
						OFFSET 2.754700 0.931300 11.300900
						CHANNELS 3 Xrotation Yrotation Zrotation
						End Site
						{
							OFFSET 0.000000 11.669021 0.000000
						}
					}
				}
			}
		}
	}
	JOINT RightUpLeg
	{
		OFFSET -15.569500 -6.655098 0.678600
		CHANNELS 3 Xrotation Yrotation Zrotation
		JOINT RightLeg
		{
			OFFSET -4.081825 -39.591045 13.023800
			CHANNELS 3 Xrotation Yrotation Zrotation
			JOINT RightFoot
			{
				OFFSET 4.081824 -37.707954 -15.979600
				CHANNELS 3 Xrotation Yrotation Zrotation
				JOINT RightToeBase
				{
					OFFSET -5.346400 -15.068900 20.645000
					CHANNELS 3 Xrotation Yrotation Zrotation
					JOINT RightToe_End
					{
						OFFSET -2.754700 0.931300 11.300900
						CHANNELS 3 Xrotation Yrotation Zrotation
						End Site
						{
							OFFSET 0.000000 11.669021 0.000000
						}
					}
				}
			}
		}
	}
}
MOTION
Frames: 4
Frame Time: 0.033333
2.839114 80.508224 -3.717943 12.633242 -17.767557 -6.403739 14.246344 12.304640 3.150492 0.896709 3.072507 -0.046382 0.904459 3.064690 -0.064814 -10.795876 -0.168917 -0.555585 -26.471797 0.757798 -1.844234 0.000000 0.000000 0.000000 7.114752 11.789737 -13.025555 25.260848 -16.089363 -48.446030 -0.000001 -55.357068 0.000006 25.801386 -5.613940 -8.680529 -4.350222 -0.826153 22.962901 19.674304 16.471213 -14.144973 -18.644463 -11.114579 16.335538 0.000006 0.000001 0.000001 1.831477 1.322230 -71.873145 5.367383 5.831113 -85.250023 4.045526 5.566428 -71.996826 -0.000002 0.000000 0.000002 3.949204 7.866362 -72.867245 5.154215 5.809560 -83.148250 4.682407 5.733563 -78.459039 -0.000000 -0.000001 0.000002 6.164828 8.310896 -80.960029 5.540564 5.842838 -86.952700 5.708428 5.849323 -88.600886 0.000001 0.000002 0.000000 -2.054227 12.751354 -81.975302 5.408896 5.834392 -85.658379 4.825716 5.760830 -79.890066 0.000001 -0.000002 -0.000001 2.208900 5.170450 14.451792 -2.679239 50.362786 50.272265 0.000027 71.289860 -0.000022 -0.847254 17.560182 -21.994384 -2.995898 -1.214772 -15.457116 18.563214 -18.977261 5.263856 -18.426121 11.533688 -11.659027 0.000001 -0.000001 0.000000 2.046745 1.766322 78.876473 6.004021 -4.458571 106.827519 5.047060 -4.640851 94.807465 -0.000000 0.000000 -0.000002 2.954558 -6.978349 91.446479 5.645235 -4.551357 102.262234 5.098229 -4.636288 95.440398 -0.000000 0.000001 -0.000001 5.246780 -6.904871 99.039594 5.746966 -4.528141 103.547348 4.745266 -4.656338 91.085053 -0.000000 0.000000 -0.000001 -5.317358 -18.899801 96.352488 5.221072 -4.622990 96.961994 4.755634 -4.656120 91.212880 -0.000002 -0.000000 0.000001 -67.191160 13.660412 5.347082 120.265903 9.185820 9.520378 -5.339077 1.268453 -17.222365 -1.785537 -0.000001 -0.000006 0.000001 0.000000 -0.000001 -3.651519 -8.760668 4.569687 39.399676 9.996918 -1.508087 -28.041656 4.471469 -0.802505 -19.553696 0.000009 0.000001 -0.000000 0.000000 0.000000 
1.927846 84.083115 11.257209 13.707315 -15.551706 -2.911861 13.669927 13.972463 -1.231054 0.196494 3.746655 -1.258521 0.159013 3.773548 -1.289654 -11.205730 -0.639073 -1.155722 -25.868501 -1.869764 -3.016479 0.000001 0.000000 0.000000 5.937260 12.533890 -7.077908 35.975720 -15.169329 -46.202275 0.000002 -62.557190 0.000000 22.045928 -9.756178 -9.158702 -4.350222 -0.826152 22.962908 19.888005 16.839837 -14.360932 -18.618450 -9.867711 15.627352 0.000006 -0.000001 -0.000000 2.052533 1.746065 -75.309980 5.449501 5.837305 -86.057815 3.998271 5.550934 -71.509082 -0.000001 0.000001 0.000000 4.024039 7.896149 -74.363534 5.332793 5.828144 -84.909626 4.688844 5.734886 -78.523536 -0.000000 -0.000001 0.000001 6.423786 8.314786 -82.519532 5.682121 5.848628 -88.342363 5.697575 5.849045 -88.494287 -0.000002 -0.000001 -0.000001 -1.667080 13.096643 -83.643344 5.538626 5.842735 -86.933562 4.866222 5.767859 -80.293470 0.000000 0.000000 -0.000000 2.235952 4.241637 12.521138 -2.779485 54.715655 48.836529 -0.000339 83.196472 0.000332 11.559722 19.889070 -20.257938 -2.995897 -1.214772 -15.457123 18.568274 -19.050229 5.303810 -18.536809 10.812175 -10.309738 0.000000 0.000001 0.000002 2.025693 1.746861 79.202669 6.006193 -4.457921 106.855509 5.025644 -4.642599 94.542884 0.000002 -0.000003 0.000000 3.008273 -6.985713 91.721552 5.617564 -4.557290 101.913437 5.083543 -4.637664 95.258777 0.000000 -0.000001 0.000001 5.096902 -6.923907 98.191503 5.722779 -4.533871 103.241103 4.732524 -4.656559 90.928177 0.000000 -0.000001 0.000000 -5.823996 -18.586092 94.093553 5.179031 -4.627903 96.440707 4.708006 -4.656890 90.626392 0.000000 -0.000000 -0.000001 -66.982183 -5.695630 11.748092 109.864289 3.012809 -2.658083 -9.441370 0.670001 -14.830132 5.872864 0.000000 -0.000000 -0.000002 0.000000 -0.000000 8.272245 -14.306234 -3.464199 23.946647 12.186714 3.396476 -17.085773 7.504634 1.036517 -28.871940 0.052854 -0.481889 -0.000000 -0.000001 0.000000 
0.847836 85.824989 24.115734 15.795296 -13.653877 0.657928 12.597315 15.160773 -5.522675 -0.571658 4.156756 -2.277276 -0.636422 4.187687 -2.337078 -11.449555 -1.023893 -1.558586 -25.299302 -4.026852 -3.764661 -0.000000 -0.000000 0.000000 5.104617 12.623713 -3.133935 41.860706 -12.323888 -44.864835 0.000008 -67.837951 0.000029 17.721418 -12.308073 -10.835929 -4.350229 -0.826153 22.962901 20.396869 17.763090 -14.911276 -18.594608 -9.180173 15.190713 -0.000002 0.000000 0.000002 1.910127 1.723119 -76.205370 5.459059 5.837957 -86.151710 3.923168 5.525363 -70.730987 0.000001 0.000000 -0.000001 4.253826 7.961133 -74.953389 5.402073 5.833881 -85.591293 4.703018 5.737725 -78.665345 -0.000000 0.000000 0.000001 6.595655 8.320885 -83.183959 5.700085 5.849112 -88.518869 5.720619 5.849606 -88.720298 0.000001 -0.000001 -0.000001 -1.314044 13.410025 -84.936879 5.510104 5.841154 -86.653340 4.892485 5.772262 -80.554589 -0.000001 0.000001 0.000001 2.350066 2.844860 12.777996 -0.214818 57.396457 42.779520 -0.000513 93.868444 0.000464 22.556290 19.493403 -21.374319 -2.995899 -1.214773 -15.457116 18.456860 -18.867388 5.175810 -18.601520 10.343321 -9.415410 -0.000001 0.000000 0.000002 2.268375 1.790299 75.960999 6.091059 -4.431393 107.950552 5.012318 -4.643636 94.378413 -0.000001 -0.000002 -0.000000 3.148985 -6.941169 90.312443 5.624490 -4.555819 102.000713 5.090771 -4.636988 95.348047 -0.000002 -0.000001 0.000001 5.106284 -6.916960 96.610765 5.713051 -4.536156 103.118084 4.744001 -4.656354 91.069549 0.000000 -0.000002 -0.000001 -6.248314 -18.290306 91.391674 5.146387 -4.631460 96.036414 4.664152 -4.657156 90.086056 0.000000 0.000001 -0.000001 -74.320620 -4.492666 7.599922 98.573563 5.072709 -2.623170 -5.928186 -0.672290 -6.242419 6.376228 -0.000001 0.000000 -0.000004 0.000000 -0.000000 11.088354 -17.081395 -10.351770 17.903358 12.118182 5.746823 2.184743 4.180828 12.862944 -49.036203 1.974787 -2.760973 0.000000 -0.000002 0.000000 
0.641169 88.457245 36.587414 17.959040 -12.448597 1.912894 10.785563 16.367131 -7.347478 -0.801157 4.425678 -2.611285 -0.866659 4.438042 -2.691662 -11.752708 -1.156612 -2.127230 -25.336655 -5.236725 -4.623016 -0.000001 0.000001 -0.000000 5.438781 11.371754 -4.887113 42.148858 -6.896914 -41.970170 -0.000053 -69.634660 -0.000064 16.704250 -13.011797 -11.153240 -4.350225 -0.826153 22.962908 20.948330 18.891470 -15.588587 -18.535788 -8.195045 14.612256 0.000002 0.000001 -0.000001 1.498092 1.408343 -75.568489 5.361901 5.830660 -85.196085 3.855157 5.501229 -70.023024 0.000003 0.000001 0.000000 4.515494 8.031261 -74.758319 5.255027 5.820732 -84.143190 4.686895 5.734488 -78.504118 -0.000001 0.000003 0.000003 6.527154 8.318255 -82.943673 5.523121 5.841901 -86.781365 5.725812 5.849719 -88.771415 -0.000001 0.000001 -0.000001 -1.254773 13.443767 -85.269332 5.354595 5.830045 -85.124033 4.845521 5.764304 -80.087253 0.000000 -0.000000 0.000001 2.530898 0.362630 12.299427 1.354436 59.634156 37.639643 -0.000072 101.001982 0.000086 27.849299 17.003307 -24.249548 -2.995899 -1.214770 -15.457111 18.214216 -18.390038 4.859419 -18.629995 10.208280 -9.084179 -0.000002 0.000001 -0.000003 2.577895 1.474193 71.885303 6.092863 -4.430818 107.973994 5.031278 -4.642153 94.612457 0.000002 0.000000 -0.000000 3.344363 -6.887828 87.995895 5.624872 -4.555741 102.005563 5.087671 -4.637277 95.309867 0.000000 0.000002 0.000001 5.222272 -6.906952 94.192919 5.663121 -4.547472 102.487549 4.724423 -4.656692 90.828368 0.000002 -0.000000 -0.000001 -6.917385 -17.794371 86.912620 5.160619 -4.629950 96.212708 4.601056 -4.656812 89.308726 0.000001 0.000002 -0.000001 -76.588264 -3.296167 4.828228 83.235329 2.657816 -1.695749 -3.033611 -0.898826 -5.747633 4.695376 0.000002 -0.000001 -0.000000 -0.000000 0.000000 18.322102 -17.408885 -11.385030 11.453980 8.016155 4.194168 10.755510 2.150896 18.395561 -18.855063 -0.469453 2.087959 -0.000001 0.000002 -0.000002 
